# xmcd CD database file
#
# Track frame offsets:
#	150
#	32264
#	55413
#	87885
#	110926
#	136437
#	163528
#	186201
#	202875
#	225808
#	252975
#
# Disc length: 3684 seconds
#
# Revision: 1
# Processed by: cddbd v1.5.2PL0 Copyright (c) Steve Scherf et al.
# Submitted via: CDex 1.51
#
DISCID=8a0e620b
DTITLE=David and Steve Gordon - Sound Peace (25th Anniversary Collection)
DYEAR=2009
DGENRE=New Age
TTITLE0=Ocean Sound Healing
TTITLE1=Soothing Sanctuary, Part II (edit version)
TTITLE2=Peace In Every Step
TTITLE3=Monet's Garden, Part I (edit version)
TTITLE4=Sonic Massage
TTITLE5=Nightflyer (edit version)
TTITLE6=Plane Of Forgiveness, Part I (edit version)
TTITLE7=Timberline (edit version)
TTITLE8=Secret Fountain (edit version)
TTITLE9=Out Of The Mist (edit version)
TTITLE10=Soothing Sanctuary, Part I (edit version)
EXTD=YEAR: 2009
EXTT0=
EXTT1=
EXTT2=
EXTT3=
EXTT4=
EXTT5=
EXTT6=
EXTT7=
EXTT8=
EXTT9=
EXTT10=
PLAYORDER=
